<?xml version="1.0" standalone="no"?>
<!DOCTYPE svg PUBLIC "-//W3C//DTD SVG 20010904//EN"
 "http://www.w3.org/TR/2001/REC-SVG-20010904/DTD/svg10.dtd">
<svg version="1.0" xmlns="http://www.w3.org/2000/svg"
 width="223.000000pt" height="346.000000pt" viewBox="0 0 223.000000 346.000000"
 preserveAspectRatio="xMidYMid meet">

<g transform="translate(0.000000,346.000000) scale(0.100000,-0.100000)"
fill="#000000" stroke="none">
<path d="M833 2911 l-532 -537 250 -250 249 -249 0 175 0 175 -77 77 -78 78
240 240 c132 132 243 240 247 240 5 0 8 -276 8 -612 l0 -613 120 120 120 120
0 787 c0 434 -3 788 -7 787 -5 0 -247 -242 -540 -538z"/>
<path d="M968 2633 l-118 -118 0 -790 0 -790 537 538 538 537 -253 252 -252
253 0 -170 0 -170 82 -82 83 -83 -245 -245 -245 -245 -5 615 -5 615 -117 -117z"/>
<path d="M270 2498 l0 -83 80 80 c44 44 80 81 80 82 0 2 -36 3 -80 3 l-80 0 0
-82z"/>
<path d="M1870 1885 l-74 -75 77 0 77 0 0 75 c0 41 -1 75 -3 75 -1 0 -36 -34
-77 -75z"/>
<path d="M126 429 c-4 -89 -12 -184 -18 -212 -11 -54 -45 -97 -76 -97 -14 0
-21 -9 -26 -31 -13 -66 -9 -76 32 -83 41 -6 94 5 119 25 49 41 82 181 83 347
l0 102 100 0 100 0 0 -235 0 -236 68 3 67 3 3 288 2 287 -223 0 -224 0 -7
-161z"/>
<path d="M720 300 l0 -290 65 0 65 0 0 235 0 235 140 0 140 0 0 55 0 55 -205
0 -205 0 0 -290z"/>
<path d="M1150 535 l0 -55 90 0 90 0 2 -232 3 -233 63 -3 62 -3 0 236 0 235
94 0 95 0 3 45 3 45 107 -199 c67 -124 106 -206 102 -216 -10 -24 -62 -47
-101 -43 -34 3 -37 1 -50 -37 -7 -22 -11 -45 -9 -51 7 -19 93 -28 138 -15 75
23 116 75 233 293 59 112 119 222 133 246 l24 42 -66 0 -65 0 -78 -150 c-43
-82 -80 -150 -83 -150 -3 0 -39 68 -80 150 l-74 150 -318 0 -318 0 0 -55z"/>
</g>
</svg>
